<svg version="1.1" xmlns="http://www.w3.org/2000/svg" width="32" height="32" viewBox="0 0 512 512"><path d="M0 0 C13.2736391 -0.25521878 26.54669179 -0.45049581 39.82228756 -0.56993389 C45.98730758 -0.62726887 52.15064543 -0.70499062 58.31469727 -0.82983398 C64.26708476 -0.94963165 70.21785789 -1.0151825 76.17135811 -1.04364967 C78.43891374 -1.0639268 80.70638397 -1.1035271 82.97324944 -1.16303062 C101.6903589 -1.63466092 101.6903589 -1.63466092 106.33299255 2.38226318 C108.62872227 5.15836833 110.31762371 7.82591626 112 11 C113.04520379 12.35059324 114.11579255 13.68271164 115.23046875 14.9765625 C116.21618208 16.19267896 117.20185882 17.40882506 118.1875 18.625 C122.8518415 24.37337674 127.54124241 30.10045599 132.25 35.8125 C132.84167969 36.53042725 133.43335938 37.24835449 134.04296875 37.98803711 C136.52631168 41.00069122 139.01046152 44.0126717 141.49609375 47.0234375 C145.52557436 51.92202178 149.47482444 56.87353426 153.375 61.875 C157.4205558 67.06130229 161.59643006 72.10957926 165.87451172 77.10498047 C169.18767887 80.9921006 172.36626458 84.96725125 175.5 89 C180.02006951 94.81499082 184.70477526 100.46625555 189.4921875 106.0625 C192.01912542 109.02240236 194.51380929 112.00587785 197 115 C201.72200144 109.80077501 206.25288479 104.50374353 210.60546875 98.9921875 C214.26623201 94.4177264 218.02732752 89.92652614 221.76904297 85.41821289 C226.16262124 80.09350977 230.31693992 74.64451082 234.328125 69.02734375 C234.87984375 68.35832031 235.4315625 67.68929687 236 67 C236.66 67 237.32 67 238 67 C238.25136719 66.43796875 238.50273437 65.8759375 238.76171875 65.296875 C240.18833099 62.65066681 241.88201868 60.55654912 243.8125 58.25 C244.61816406 57.27933594 245.42382812 56.30867188 246.25390625 55.30859375 C246.69492676 54.77862793 247.13594727 54.24866211 247.59033203 53.70263672 C250.1663862 50.59120586 252.70572319 47.4499211 255.25 44.3125 C256.36715666 42.93747494 257.48434456 41.56247527 258.6015625 40.1875 C260.84950954 37.41920681 263.0939679 34.64813583 265.3359375 31.875 C271.31596723 24.48572021 277.35565322 17.16516448 283.5625 9.96484375 C285.91016305 7.29899975 285.91016305 7.29899975 286.97619915 5.20715237 C288.6125909 2.31868813 289.84278547 0.34724781 293.11318398 -0.63410759 C295.80389483 -0.8634651 298.41476335 -0.86586066 301.11450195 -0.79467773 C302.63715416 -0.79621101 302.63715416 -0.79621101 304.19056702 -0.79777527 C307.54087618 -0.79290407 310.88844916 -0.73848134 314.23828125 -0.68359375 C316.56282563 -0.67053599 318.8873893 -0.66057266 321.21195984 -0.65357971 C327.32643949 -0.62686883 333.43975277 -0.5581177 339.55377197 -0.48065186 C345.79415101 -0.40900955 352.03471877 -0.37706593 358.27539062 -0.34179688 C370.51743919 -0.26675183 382.75862256 -0.14729906 395 0 C394.22589072 5.07549238 391.94651885 7.79211186 388.5625 11.5 C387.45689916 12.74758049 386.35408117 13.99763207 385.25390625 15.25 C384.70234863 15.87777344 384.15079102 16.50554687 383.58251953 17.15234375 C381.26946791 19.85292608 379.14042653 22.66001944 377 25.5 C373.51131793 30.12602055 369.8625077 34.5638145 366.0625 38.9375 C361.04534507 44.71305273 356.28637903 50.64994786 351.58984375 56.6875 C347.11889492 62.42994226 342.45888993 68.01925933 337.828125 73.6328125 C333.6923738 78.66317654 329.62801431 83.73904382 325.625 88.875 C321.58084475 94.05979632 317.40547471 99.10579255 313.12988281 104.10058594 C309.2965683 108.59961486 305.6359161 113.21960585 302.00634766 117.88378906 C298.31410785 122.62427778 294.52122715 127.26984065 290.6796875 131.890625 C288.96883 133.88957638 288.96883 133.88957638 288 136 C287.34 136 286.68 136 286 136 C285.72744385 136.58571777 285.4548877 137.17143555 285.17407227 137.77490234 C284.02387833 139.95474587 282.77121896 141.6965448 281.21484375 143.6015625 C280.68439453 144.25640625 280.15394531 144.91125 279.60742188 145.5859375 C279.05634766 146.25882813 278.50527344 146.93171875 277.9375 147.625 C276.84083397 148.97003986 275.74570667 150.31633622 274.65234375 151.6640625 C274.16757568 152.25654785 273.68280762 152.8490332 273.18334961 153.45947266 C271.91776563 155.00596861 271.91776563 155.00596861 271 157 C270.34 157 269.68 157 269 157 C268.77570313 157.53109375 268.55140625 158.0621875 268.3203125 158.609375 C266.55204584 161.8110886 264.23950919 164.48147104 261.875 167.25 C261.40707031 167.80429687 260.93914062 168.35859375 260.45703125 168.9296875 C259.30824672 170.28947326 258.15460347 171.64515165 257 173 C266.63382651 186.06405262 277.08014546 198.52026501 287.33984375 211.09375 C292.47458018 217.39236003 297.57404657 223.70972999 302.5625 230.125 C306.72817293 235.47697427 311.08071641 240.63461733 315.52416992 245.75708008 C319.40007899 250.24638846 323.0820479 254.85989731 326.71923828 259.54345703 C330.93642838 264.9591381 335.29304903 270.25323771 339.66748047 275.54223633 C343.63649662 280.3416878 347.57930364 285.16100696 351.5 290 C355.97513249 295.52073692 360.47716149 301.01828227 365 306.5 C374.6795924 318.23856677 384.29453398 330.02045834 393.66015625 342.01171875 C395.17089568 343.94112721 396.71848747 345.84249038 398.30859375 347.70703125 C400 350 400 350 400 353 C386.80454128 353.15390236 373.6090319 353.30208315 360.41342735 353.4429636 C354.28616188 353.50855994 348.15893132 353.57612555 342.03173828 353.64819336 C336.11847889 353.71767241 330.20518376 353.78197631 324.29182816 353.84269524 C322.03598615 353.86676742 319.78016323 353.89270304 317.52436447 353.92053413 C314.36441785 353.95920167 311.20446823 353.99123847 308.04443359 354.02172852 C307.11222992 354.03467453 306.18002625 354.04762054 305.21957397 354.06095886 C300.68632639 354.09778755 296.46197362 353.9379082 292 353 C292 352.34 292 351.68 292 351 C291.34 351 290.68 351 290 351 C288.25504422 348.95210051 286.61893522 346.8944695 285 344.75 C280.4287825 338.79159645 275.69594207 333.02265111 270.80078125 327.328125 C269 325 269 325 269 323 C268.34 323 267.68 323 267 323 C265.51171875 321.375 265.51171875 321.375 263.6875 319 C262.9759375 318.08863281 262.264375 317.17726563 261.53125 316.23828125 C261.13164062 315.72475098 260.73203125 315.2112207 260.3203125 314.68212891 C257.81290223 311.48759178 255.24846754 308.3391417 252.6875 305.1875 C252.13199463 304.50292725 251.57648926 303.81835449 251.00415039 303.11303711 C247.42823671 298.7187963 243.80001621 294.37405748 240.125 290.0625 C235.93733772 285.14619483 231.92879509 280.12451533 228 275 C226.11078411 272.55730567 224.21284903 270.12153874 222.3125 267.6875 C221.8484375 267.0881665 221.384375 266.48883301 220.90625 265.87133789 C219.02545758 263.46445206 217.17840261 261.17770162 215.01171875 259.01953125 C211.68275838 255.67764288 208.93532747 251.86944559 206.06640625 248.1328125 C204.0222246 245.49406278 202.03753688 243.03703639 199.65625 240.6875 C198 239 198 239 198 237 C193.40206652 241.38018071 189.6527173 246.20153384 185.84179688 251.26757812 C184.6050266 252.87964421 183.30715704 254.44446207 182 256 C181.34 256 180.68 256 180 256 C179.76925781 256.52980469 179.53851563 257.05960937 179.30078125 257.60546875 C177.58387077 260.76602767 175.41692759 263.50529088 173.1875 266.3125 C172.70829102 266.91989014 172.22908203 267.52728027 171.73535156 268.15307617 C167.49103144 273.48300997 163.04320711 278.62296489 158.55517578 283.74780273 C155.2311507 287.55114965 152.05186936 291.4139351 148.99609375 295.4375 C144.35044851 301.40138117 139.46414387 307.1775882 134.64794922 313.00390625 C131.77755066 316.48070308 128.92462901 319.97164226 126.07421875 323.46484375 C124.64498782 325.21168155 123.20972181 326.95359312 121.76953125 328.69140625 C116.90809039 334.57366602 112.30665721 340.57259397 107.84765625 346.76171875 C106.93306641 347.86966797 106.93306641 347.86966797 106 349 C105.34 349 104.68 349 104 349 C103.67 349.99 103.34 350.98 103 352 C97.31403396 352.97165758 91.81898412 353.14225656 86.05737305 353.12939453 C84.59762306 353.13202301 84.59762306 353.13202301 83.10838318 353.13470459 C79.90947661 353.13908648 76.71062582 353.13619919 73.51171875 353.1328125 C71.28448984 353.13348632 69.05726101 353.13445699 66.83003235 353.13571167 C62.17240699 353.13718344 57.51480085 353.13504978 52.85717773 353.13037109 C46.87700984 353.12465753 40.89688667 353.12796637 34.91672039 353.13394356 C30.32293864 353.13754908 25.72916758 353.13641091 21.13538551 353.13381577 C18.92928881 353.13314733 16.72319115 353.13397202 14.51709557 353.13629532 C11.44325543 353.13882347 8.36948892 353.13497967 5.2956543 353.12939453 C4.37876831 353.13141876 3.46188232 353.13344299 2.51721191 353.13552856 C-3.77146549 353.11426726 -3.77146549 353.11426726 -6 352 C-4.48657699 347.14063575 -1.69650633 344.0299948 1.625 340.3125 C2.71870483 339.06359961 3.81114984 337.81359484 4.90234375 336.5625 C5.43456543 335.9540625 5.96678711 335.345625 6.51513672 334.71875 C9.12775197 331.69461133 11.5964001 328.56024749 14.07421875 325.42578125 C16.18947334 322.76133278 18.34133267 320.12938185 20.5 317.5 C23.32043802 314.0634936 26.11295306 310.60856124 28.875 307.125 C32.03039377 303.16343776 35.27827134 299.29190724 38.5625 295.4375 C42.15300837 291.22047218 45.63654521 286.95414561 49.0078125 282.55859375 C55.67234214 273.99924686 62.57976379 265.62289497 69.625 257.375 C73.89146221 252.37811698 77.98234951 247.2635934 82.02270508 242.08276367 C86.2615009 236.64904837 90.61323714 231.31499638 95 226 C96.0600708 224.71238361 97.11995317 223.42461207 98.1796875 222.13671875 C103.02609629 216.24812309 107.87534365 210.36188046 112.73046875 204.48046875 C121.95904764 193.31613467 121.95904764 193.31613467 131 182 C131.598125 181.23816406 132.19625 180.47632813 132.8125 179.69140625 C133.369375 178.96824219 133.92625 178.24507812 134.5 177.5 C135.22703125 176.55640625 135.22703125 176.55640625 135.96875 175.59375 C137.18108376 174.03652542 137.18108376 174.03652542 137 172 C136.34 172 135.68 172 135 172 C133.6636595 170.38538264 132.40850099 168.70351159 131.1875 167 C127.48057828 161.91433114 123.61474662 156.99167869 119.625 152.125 C115.4816098 147.06540467 111.39046406 141.97420573 107.375 136.8125 C103.83059005 132.2621833 100.18990689 127.81772356 96.4375 123.4375 C92.34529551 118.66060478 88.44791032 113.77237031 84.65063477 108.75830078 C81.11183446 104.09639963 77.39781282 99.61194837 73.6171875 95.14453125 C72 93 72 93 72 91 C71.34 91 70.68 91 70 91 C68.7734375 89.6015625 68.7734375 89.6015625 67.375 87.625 C64.26046458 83.30782219 60.93016113 79.20390279 57.5390625 75.1015625 C56 73 56 73 56 71 C55.34 71 54.68 71 54 71 C52.71630859 69.52685547 52.71630859 69.52685547 51.2734375 67.4921875 C48.19426801 63.24782592 44.94820395 59.17967679 41.625 55.125 C40.47758717 53.71897634 39.33045097 52.31272689 38.18359375 50.90625 C37.63558105 50.23464844 37.08756836 49.56304687 36.52294922 48.87109375 C33.3205049 44.93657415 30.16165114 40.96729672 27 37 C25.66698733 35.33307686 24.33364789 33.66641497 23 32 C22.3503125 31.1853125 21.700625 30.370625 21.03125 29.53125 C19.60374037 27.75235338 18.16522463 25.98226016 16.71875 24.21875 C15.9865625 23.3215625 15.254375 22.424375 14.5 21.5 C13.8296875 20.6853125 13.159375 19.870625 12.46875 19.03125 C11 17 11 17 11 15 C10.34 15 9.68 15 9 15 C7.21229093 12.8664718 5.53127176 10.73155942 3.875 8.5 C3.40707031 7.87996094 2.93914063 7.25992188 2.45703125 6.62109375 C1.29903391 5.08497483 0.14878643 3.54301941 -1 2 C-0.67 1.34 -0.34 0.68 0 0 Z " fill="#26B274" transform="translate(59,136)" /><path d="M0 0 C59.22122899 -0.0228637 118.44245788 -0.04049888 177.66369035 -0.05106533 C184.64729423 -0.05231272 191.63089809 -0.05360927 198.61450195 -0.05493164 C199.30947305 -0.0550624 200.00444414 -0.05519316 200.72047496 -0.05532788 C223.26682791 -0.05959304 245.81317836 -0.06710719 268.35952979 -0.07629722 C292.1748823 -0.08598693 315.99023287 -0.0919936 339.80558735 -0.09408849 C354.08088254 -0.09546406 368.35617055 -0.09981648 382.63146354 -0.10791647 C392.40612701 -0.1131819 402.18078675 -0.11480476 411.95545154 -0.11350138 C417.6040486 -0.11285768 423.2526331 -0.11387907 428.90122795 -0.11920547 C434.06335006 -0.12403791 439.22545104 -0.12433968 444.38757408 -0.12089889 C446.26375755 -0.12047305 448.13994229 -0.12177009 450.01612323 -0.12488318 C452.54906699 -0.1288446 455.08193251 -0.12676501 457.61487484 -0.12304783 C458.35826846 -0.12567484 459.10166207 -0.12830186 459.86758277 -0.13100848 C464.8858542 -0.1141458 464.8858542 -0.1141458 466 1 C466.10023744 3.33187559 466.13619205 5.63414052 466.12939453 7.96655273 C466.13202301 9.05922958 466.13202301 9.05922958 466.13470459 10.17398071 C466.13912356 12.59387561 466.13618467 15.01369804 466.1328125 17.43359375 C466.1334856 19.10889195 466.13445568 20.78419005 466.13571167 22.45948792 C466.13718876 25.97601244 466.135034 29.49251162 466.13037109 33.0090332 C466.12467818 37.5231068 466.12794996 42.03712088 466.13394356 46.55119228 C466.1375526 50.01264395 466.13640892 53.47408144 466.13381577 56.93553352 C466.13314722 58.6001594 466.1339724 60.26478655 466.13629532 61.92941093 C466.13882698 64.2543263 466.13497377 66.57914462 466.12939453 68.90405273 C466.13141876 69.59659653 466.13344299 70.28914032 466.13552856 71.00267029 C466.11426368 75.77147264 466.11426368 75.77147264 465 78 C464.20946763 77.9959358 463.41893526 77.9918716 462.60444736 77.98768425 C443.34878662 77.89213489 424.09373416 77.85195536 404.83783817 77.87302971 C395.5256412 77.88189293 386.21416272 77.87217326 376.90209961 77.81835938 C368.78345386 77.77148971 360.66564259 77.75984064 352.5469045 77.7900821 C348.24964969 77.80486954 343.95401967 77.80229409 339.65693855 77.75750351 C335.60710106 77.71584749 331.5600104 77.72149883 327.51019287 77.76252174 C326.02878544 77.769357 324.54718256 77.75930796 323.06603813 77.73056984 C314.55713676 77.53755054 314.55713676 77.53755054 307.13000298 81.16754532 C303.72028167 84.85607919 301.23452856 88.52996704 299 93 C297.34947781 94.68265625 295.6795361 96.34630292 294 98 C291.71222486 100.61870214 289.51255823 103.30745001 287.3125 106 C286.69455566 106.7525708 286.07661133 107.5051416 285.43994141 108.28051758 C281.83512508 112.69040643 278.31817356 117.15054683 274.875 121.6875 C270.93995258 126.86553294 266.78949036 131.79704034 262.52636719 136.70654297 C258.6414793 141.20007156 254.95005756 145.81555777 251.30957031 150.50805664 C245.37133801 158.13879233 239.17394873 165.55977425 233 173 C229.23881504 171.26923697 227.39061309 169.33562354 224.8125 166.0625 C224.03519531 165.08410156 223.25789062 164.10570312 222.45703125 163.09765625 C221.64621094 162.07542969 220.83539063 161.05320313 220 160 C217.58790066 157.10030937 215.17125204 154.20455104 212.75 151.3125 C211 149 211 149 210 146 C209.34 146 208.68 146 208 146 C207.01649355 144.57937957 206.0406571 143.15248245 205.11523438 141.69335938 C203.36666991 139.03835869 201.30517418 136.67170206 199.25 134.25 C198.3598847 133.19467825 197.47057219 132.1386789 196.58203125 131.08203125 C196.14455566 130.56205566 195.70708008 130.04208008 195.25634766 129.50634766 C192.78426443 126.5423458 190.3948616 123.51241639 187.9921875 120.4921875 C184.36990324 115.96078091 180.68007218 111.48449415 177 107 C174.84779502 104.37438949 172.69707354 101.74763453 170.55078125 99.1171875 C168.55814024 96.67658843 166.55140557 94.24792511 164.54296875 91.8203125 C163.34101929 90.35947911 162.13919597 88.89854192 160.9375 87.4375 C160.35258789 86.73407471 159.76767578 86.03064941 159.16503906 85.3059082 C158.62459961 84.64679443 158.08416016 83.98768066 157.52734375 83.30859375 C157.03999756 82.71876709 156.55265137 82.12894043 156.05053711 81.52124023 C155 80 155 80 155 78 C103.85 78 52.7 78 0 78 C-2.11968682 73.76062636 -2.25274379 71.8285043 -2.25878906 67.18359375 C-2.2622937 66.50668488 -2.26579834 65.829776 -2.26940918 65.13235474 C-2.27819288 62.90063137 -2.27238938 60.66922645 -2.265625 58.4375 C-2.26697262 56.88338154 -2.26891396 55.3292635 -2.27142334 53.77514648 C-2.27437004 50.52030416 -2.27009159 47.26557172 -2.26074219 44.01074219 C-2.24934787 39.84103143 -2.25590977 35.67157815 -2.26788712 31.50187683 C-2.27511799 28.29339665 -2.27281215 25.08497739 -2.26763153 21.87649536 C-2.26629843 20.33912119 -2.26793086 18.80174147 -2.27259064 17.26437378 C-2.27767609 15.11490244 -2.26991761 12.96584669 -2.25878906 10.81640625 C-2.25719788 9.59381104 -2.25560669 8.37121582 -2.25396729 7.11157227 C-2.00706501 4.08655952 -1.41846984 2.60239288 0 0 Z " fill="#26B274" transform="translate(24,22)" /></svg>